<?xml version="1.0" encoding="UTF-8"?><svg id="Layer_1" xmlns="http://www.w3.org/2000/svg" viewBox="0 0 1000 1000"><path d="M943.57,223.54H49.31c-17.73,0-32.1,14.37-32.1,32.1v267.82c0,17.73,14.37,32.1,32.1,32.1H943.57c17.73,0,32.1-14.37,32.1-32.1V255.64c0-17.73-14.37-32.1-32.1-32.1Zm.92,290.75c0,10.13-8.21,18.34-18.34,18.34H66.73c-10.13,0-18.34-8.21-18.34-18.34v-250.39c0-10.13,8.21-18.34,18.34-18.34H926.15c10.13,0,18.34,8.21,18.34,18.34v250.39Zm-239.39,104.56v12.38c0,13.42-10.88,24.31-24.31,24.31H402.89c-13.42,0-24.31-10.88-24.31-24.31v-12.38h148.59V119.89h-148.59v-5.04c0-13.42,10.88-24.31,24.31-24.31h277.91c13.42,0,24.31,10.88,24.31,24.31v5.04h-146.75v498.96h146.75Z"/></svg>