<?xml version="1.0" encoding="UTF-8"?><svg id="Layer_1" xmlns="http://www.w3.org/2000/svg" viewBox="0 0 1000 1000"><path d="M107.33,926.62h-10.61c-21.97,0-39.77-17.81-39.77-39.77V62.31c0-21.97,17.81-39.77,39.77-39.77h10.61c21.97,0,39.77,17.81,39.77,39.77V886.84c0,21.97-17.81,39.77-39.77,39.77ZM864.45,22.53H251.42c-20.63,0-37.35,16.72-37.35,37.35V889.27c0,20.63,16.72,37.35,37.35,37.35h466.64c-17.39-23.24-27.68-52.09-27.68-83.35,0-76.93,62.36-139.29,139.29-139.29,26.4,0,51.08,7.35,72.12,20.1V59.88c0-20.63-16.72-37.35-37.35-37.35Zm-34.77,317.4c0,25.28-20.5,45.78-45.78,45.78H360.3c-25.28,0-45.78-20.5-45.78-45.78V185.39c0-25.28,20.5-45.78,45.78-45.78h423.59c25.28,0,45.78,20.5,45.78,45.78v154.54Zm-23.74,445.5l-75.48,10.97,54.62,53.24-12.89,75.17,67.51-35.49,67.51,35.49-12.89-75.17,54.62-53.24-75.48-10.97-33.75-68.39-33.75,68.39Z"/></svg>