<?xml version="1.0" encoding="UTF-8"?><svg id="Layer_1" xmlns="http://www.w3.org/2000/svg" viewBox="0 0 1000 1000"><path d="M804.39,26.73H238.93c-23.17,0-41.96,18.79-41.96,41.96V931.32c0,23.17,18.79,41.96,41.96,41.96H804.39c23.17,0,41.96-18.79,41.96-41.96V68.68c0-23.17-18.79-41.96-41.96-41.96Zm-282.73,935.08c-23.81,0-43.11-19.3-43.11-43.11s19.3-43.11,43.11-43.11,43.11,19.3,43.11,43.11-19.3,43.11-43.11,43.11Zm249.48-146.75c0,23.3-18.89,42.19-42.19,42.19H308.87c-23.3,0-42.19-18.89-42.19-42.19V125.32c0-23.3,18.89-42.19,42.19-42.19h420.08c23.3,0,42.19,18.89,42.19,42.19V815.05Z"/></svg>