<?xml version="1.0" encoding="UTF-8"?><svg id="Layer_1" xmlns="http://www.w3.org/2000/svg" viewBox="0 0 1000 1000"><path d="M127.96,934.09h-10.61c-21.97,0-39.77-17.81-39.77-39.77V69.78c0-21.97,17.81-39.77,39.77-39.77h10.61c21.97,0,39.77,17.81,39.77,39.77V894.32c0,21.97-17.81,39.77-39.77,39.77Zm610.73,0H272.05c-20.63,0-37.35-16.72-37.35-37.35V67.35c0-20.63,16.72-37.35,37.35-37.35H885.07c20.63,0,37.35,16.72,37.35,37.35V731.55c-21.04-12.76-45.72-20.1-72.12-20.1-76.93,0-139.29,62.36-139.29,139.29,0,31.26,10.3,60.11,27.68,83.35ZM380.93,393.19h423.59c25.28,0,45.78-20.5,45.78-45.78V192.86c0-25.28-20.5-45.78-45.78-45.78H380.93c-25.28,0-45.78,20.5-45.78,45.78v154.54c0,25.28,20.5,45.78,45.78,45.78Zm560.73,418.21h-167.11c-12.16,0-22.01,9.86-22.01,22.01v20.12c0,12.16,9.86,22.01,22.01,22.01h167.11c12.16,0,22.01-9.86,22.01-22.01v-20.12c0-12.16-9.86-22.01-22.01-22.01Zm-51.48,115.63v-167.11c0-12.16-9.86-22.01-22.01-22.01h-20.12c-12.16,0-22.01,9.86-22.01,22.01v167.11c0,12.16,9.86,22.01,22.01,22.01h20.12c12.16,0,22.01-9.86,22.01-22.01Z"/></svg>